# xmcd
#
# Track frame offsets:
#	150
#	13082
#	32940
#	42779
#	55385
#	66124
#	81996
#	95341
#	107343
#	119703
#	133057
#	144114
#	155926
#	172417
#	191400
#	208164
#
# Disc length: 3035 seconds
#
# Revision: 1
# Processed by: cddbd v1.5.2PL0 Copyright (c) Steve Scherf et al.
# Submitted via: audiograbber 1.83.01
#
DISCID=ed0bd910
DTITLE=Motown - Greatest Hits Collection 50°-3 Queens Of Soul
DYEAR=2009
DGENRE=Soul
TTITLE0=The Supremes - You Can't Hurry Love
TTITLE1=Shanice - I Love Your Smile
TTITLE2=Valerie Simpson - Silly Wasn't I
TTITLE3=Martha and The Vandellas - Heat Wave
TTITLE4=Chris Clark - Love's Gone Back
TTITLE5=Diana Ross - Ain't No Mountain High Enough
TTITLE6=Brenda Holloway - Every Little Bit Hurts
TTITLE7=Rita Wright - I Can't Give Back The Love I Feel For You
TTITLE8=Mary Wells - You Beat Me To The Punch
TTITLE9=Barbara Mcnair - Yo're Gonna Love My Baby
TTITLE10=The Marvelettes - I'll Keep Holding On
TTITLE11=The Elgins - Darling Baby
TTITLE12=Syreeta - Homour Love
TTITLE13=Thelma Houston - Memories
TTITLE14=Bettie Lavette - Right In The Middle (Of Falling In Love)
TTITLE15=Gladys Knight and The Pips - Neither One Of Us (Wants To Be The First To
TTITLE15=Say Goodbye)
EXTD=
EXTT0=
EXTT1=
EXTT2=
EXTT3=
EXTT4=
EXTT5=
EXTT6=
EXTT7=
EXTT8=
EXTT9=
EXTT10=
EXTT11=
EXTT12=
EXTT13=
EXTT14=
EXTT15=
PLAYORDER=
